# xmcd CD database file
#
# Track frame offsets:
#	150
#	12010
#	24600
#	39000
#	54515
#	69895
#	85288
#	98795
#	113323
#	128688
#	143050
#	157233
#	175003
#	188403
#	200585
#	213843
#	228503
#	253093
#	269971
#	282844
#	297707
#
# Disc length: 4169 seconds
#
# Revision: 0
# Processed by: cddbd v1.5.2PL0 Copyright (c) Steve Scherf et al.
# Submitted via: CDex 1.51
#
DISCID=26104715
DTITLE=Smoke Rings - Leif 'Smoke Rings' Anderson - Swing session
DYEAR=1991
DGENRE=Jazz
TTITLE0=Harry James - Big John Special
TTITLE1=Harry James - Sweet Jenny Lou
TTITLE2=Benny Goodman - If I had you
TTITLE3=Tommy Dorsey - After I Say I'm Sorry
TTITLE4=Jack Jenny - Star Dust
TTITLE5=Larry Clinton - My Reverie
TTITLE6=Andy Kirk - Jump, Jack, Jump
TTITLE7=Connie Boswell and Victor Young - Sand In My Shoes
TTITLE8=Bunny Berigan - Trees
TTITLE9=Vaughn Monroe - Something Sentimental
TTITLE10=Joe Tomas - You Cab Depend On Me
TTITLE11=George Wettling - Home
TTITLE12=Jan Savitt - 720 In The Books
TTITLE13=Mildred Bailey - Thanks For The Memory
TTITLE14=Glen Gray Casa Loma Orch. - Smoke Rings
TTITLE15=Duke Ellington - Someone
TTITLE16=Woody Herman - Dancing In The Dawn
TTITLE17=Tommy Dorsey Orchestra - I Guess I'll Have To Dream The Rest
TTITLE18=Peggy Lee And The Capitol Jazzmen - That Old Feeling
TTITLE19=Jimmie Lunceford - Yard Dog Mazurka
TTITLE20=Johnny Mecer, Jo Stafford, The Pied Pipers and Paul Weston - Blues In The Night
EXTD=YEAR: 1991
EXTT0=
EXTT1=
EXTT2=
EXTT3=
EXTT4=
EXTT5=
EXTT6=
EXTT7=
EXTT8=
EXTT9=
EXTT10=
EXTT11=
EXTT12=
EXTT13=
EXTT14=
EXTT15=
EXTT16=
EXTT17=
EXTT18=
EXTT19=
EXTT20=
PLAYORDER=
